<svg xmlns="http://www.w3.org/2000/svg" xmlns:xlink="http://www.w3.org/1999/xlink" width="1080" zoomAndPan="magnify" viewBox="0 0 810 809.999993" height="1080" preserveAspectRatio="xMidYMid meet" version="1.0"><defs><clipPath id="0675b10bb1"><path d="M 172 22.5 L 645 22.5 L 645 767.25 L 172 767.25 Z M 172 22.5 " clip-rule="nonzero"/></clipPath><clipPath id="71a8a0f907"><path d="M 303.25 708 L 506.5 708 L 506.5 764.164062 L 303.25 764.164062 Z M 303.25 708 " clip-rule="nonzero"/></clipPath><clipPath id="7a7ef3589a"><path d="M 240 452 L 293 452 L 293 596 L 240 596 Z M 240 452 " clip-rule="nonzero"/></clipPath><clipPath id="dcebaab77d"><path d="M 144.984375 489.75 L 243.304688 379.460938 L 377.664062 499.242188 L 279.347656 609.53125 Z M 144.984375 489.75 " clip-rule="nonzero"/></clipPath><clipPath id="c20a43a9c5"><path d="M 144.984375 489.75 L 243.304688 379.460938 L 377.664062 499.242188 L 279.347656 609.53125 Z M 144.984375 489.75 " clip-rule="nonzero"/></clipPath><clipPath id="d193309c67"><path d="M 194 447 L 246 447 L 246 476 L 194 476 Z M 194 447 " clip-rule="nonzero"/></clipPath><clipPath id="2be253b3ae"><path d="M 144.984375 489.75 L 243.304688 379.460938 L 377.664062 499.242188 L 279.347656 609.53125 Z M 144.984375 489.75 " clip-rule="nonzero"/></clipPath><clipPath id="0d8ca1b260"><path d="M 144.984375 489.75 L 243.304688 379.460938 L 377.664062 499.242188 L 279.347656 609.53125 Z M 144.984375 489.75 " clip-rule="nonzero"/></clipPath><clipPath id="f5309e0b3e"><path d="M 245 414 L 288 414 L 288 470 L 245 470 Z M 245 414 " clip-rule="nonzero"/></clipPath><clipPath id="4c807c0451"><path d="M 144.984375 489.75 L 243.304688 379.460938 L 377.664062 499.242188 L 279.347656 609.53125 Z M 144.984375 489.75 " clip-rule="nonzero"/></clipPath><clipPath id="1a00f33404"><path d="M 144.984375 489.75 L 243.304688 379.460938 L 377.664062 499.242188 L 279.347656 609.53125 Z M 144.984375 489.75 " clip-rule="nonzero"/></clipPath><clipPath id="e4231a21db"><path d="M 199 481 L 251 481 L 251 501 L 199 501 Z M 199 481 " clip-rule="nonzero"/></clipPath><clipPath id="7f2aaa7acc"><path d="M 144.984375 489.75 L 243.304688 379.460938 L 377.664062 499.242188 L 279.347656 609.53125 Z M 144.984375 489.75 " clip-rule="nonzero"/></clipPath><clipPath id="7ae492618f"><path d="M 144.984375 489.75 L 243.304688 379.460938 L 377.664062 499.242188 L 279.347656 609.53125 Z M 144.984375 489.75 " clip-rule="nonzero"/></clipPath><clipPath id="82fa1d7139"><path d="M 250 448 L 304 448 L 304 491 L 250 491 Z M 250 448 " clip-rule="nonzero"/></clipPath><clipPath id="146b33a06d"><path d="M 144.984375 489.75 L 243.304688 379.460938 L 377.664062 499.242188 L 279.347656 609.53125 Z M 144.984375 489.75 " clip-rule="nonzero"/></clipPath><clipPath id="986b767c62"><path d="M 144.984375 489.75 L 243.304688 379.460938 L 377.664062 499.242188 L 279.347656 609.53125 Z M 144.984375 489.75 " clip-rule="nonzero"/></clipPath><clipPath id="643cfa9817"><path d="M 202 480 L 307 480 L 307 535 L 202 535 Z M 202 480 " clip-rule="nonzero"/></clipPath><clipPath id="aabb373f55"><path d="M 144.984375 489.75 L 243.304688 379.460938 L 377.664062 499.242188 L 279.347656 609.53125 Z M 144.984375 489.75 " clip-rule="nonzero"/></clipPath><clipPath id="67a5389122"><path d="M 144.984375 489.75 L 243.304688 379.460938 L 377.664062 499.242188 L 279.347656 609.53125 Z M 144.984375 489.75 " clip-rule="nonzero"/></clipPath><clipPath id="fed7b32174"><path d="M 218 403 L 248 403 L 248 466 L 218 466 Z M 218 403 " clip-rule="nonzero"/></clipPath><clipPath id="b2fa1cfa64"><path d="M 144.984375 489.75 L 243.304688 379.460938 L 377.664062 499.242188 L 279.347656 609.53125 Z M 144.984375 489.75 " clip-rule="nonzero"/></clipPath><clipPath id="0b13d427ef"><path d="M 144.984375 489.75 L 243.304688 379.460938 L 377.664062 499.242188 L 279.347656 609.53125 Z M 144.984375 489.75 " clip-rule="nonzero"/></clipPath><clipPath id="e3740cb0ae"><path d="M 227 525 L 263 525 L 263 567 L 227 567 Z M 227 525 " clip-rule="nonzero"/></clipPath><clipPath id="0635a117c6"><path d="M 144.984375 489.75 L 243.304688 379.460938 L 377.664062 499.242188 L 279.347656 609.53125 Z M 144.984375 489.75 " clip-rule="nonzero"/></clipPath><clipPath id="b91308beb8"><path d="M 144.984375 489.75 L 243.304688 379.460938 L 377.664062 499.242188 L 279.347656 609.53125 Z M 144.984375 489.75 " clip-rule="nonzero"/></clipPath><clipPath id="1ca4b4ba49"><path d="M 259 515 L 321 515 L 321 540 L 259 540 Z M 259 515 " clip-rule="nonzero"/></clipPath><clipPath id="c821a307c1"><path d="M 144.984375 489.75 L 243.304688 379.460938 L 377.664062 499.242188 L 279.347656 609.53125 Z M 144.984375 489.75 " clip-rule="nonzero"/></clipPath><clipPath id="ae58c14e15"><path d="M 144.984375 489.75 L 243.304688 379.460938 L 377.664062 499.242188 L 279.347656 609.53125 Z M 144.984375 489.75 " clip-rule="nonzero"/></clipPath><clipPath id="66d53ac04c"><path d="M 261.359375 98.429688 L 540.359375 98.429688 L 540.359375 128.429688 L 261.359375 128.429688 Z M 261.359375 98.429688 " clip-rule="nonzero"/></clipPath><clipPath id="a7e8a6d1a0"><path d="M 260.75 144.992188 L 539.75 144.992188 L 539.75 174.992188 L 260.75 174.992188 Z M 260.75 144.992188 " clip-rule="nonzero"/></clipPath><clipPath id="ecd7b2e6a4"><path d="M 530 452 L 575 452 L 575 599 L 530 599 Z M 530 452 " clip-rule="nonzero"/></clipPath><clipPath id="796060145a"><path d="M 544.71875 611.054688 L 440.246094 506.578125 L 567.523438 379.300781 L 672 483.773438 Z M 544.71875 611.054688 " clip-rule="nonzero"/></clipPath><clipPath id="6321461f74"><path d="M 671.851562 483.925781 L 567.375 379.449219 L 440.09375 506.730469 L 544.570312 611.203125 Z M 671.851562 483.925781 " clip-rule="nonzero"/></clipPath><clipPath id="667859230d"><path d="M 569 445 L 621 445 L 621 475 L 569 475 Z M 569 445 " clip-rule="nonzero"/></clipPath><clipPath id="a0bf110167"><path d="M 544.71875 611.054688 L 440.246094 506.578125 L 567.523438 379.300781 L 672 483.773438 Z M 544.71875 611.054688 " clip-rule="nonzero"/></clipPath><clipPath id="e72ddee8bd"><path d="M 671.851562 483.925781 L 567.375 379.449219 L 440.09375 506.730469 L 544.570312 611.203125 Z M 671.851562 483.925781 " clip-rule="nonzero"/></clipPath><clipPath id="9b5464ed3a"><path d="M 525 416 L 571 416 L 571 470 L 525 470 Z M 525 416 " clip-rule="nonzero"/></clipPath><clipPath id="df24c2fe44"><path d="M 544.71875 611.054688 L 440.246094 506.578125 L 567.523438 379.300781 L 672 483.773438 Z M 544.71875 611.054688 " clip-rule="nonzero"/></clipPath><clipPath id="866cf09611"><path d="M 671.851562 483.925781 L 567.375 379.449219 L 440.09375 506.730469 L 544.570312 611.203125 Z M 671.851562 483.925781 " clip-rule="nonzero"/></clipPath><clipPath id="d97c01606d"><path d="M 566 480 L 618 480 L 618 500 L 566 500 Z M 566 480 " clip-rule="nonzero"/></clipPath><clipPath id="c8395155da"><path d="M 544.71875 611.054688 L 440.246094 506.578125 L 567.523438 379.300781 L 672 483.773438 Z M 544.71875 611.054688 " clip-rule="nonzero"/></clipPath><clipPath id="039cd384a2"><path d="M 671.851562 483.925781 L 567.375 379.449219 L 440.09375 506.730469 L 544.570312 611.203125 Z M 671.851562 483.925781 " clip-rule="nonzero"/></clipPath><clipPath id="2ba16c7f54"><path d="M 511 451 L 567 451 L 567 491 L 511 491 Z M 511 451 " clip-rule="nonzero"/></clipPath><clipPath id="8d82dd1503"><path d="M 544.71875 611.054688 L 440.246094 506.578125 L 567.523438 379.300781 L 672 483.773438 Z M 544.71875 611.054688 " clip-rule="nonzero"/></clipPath><clipPath id="2dd17e1686"><path d="M 671.851562 483.925781 L 567.375 379.449219 L 440.09375 506.730469 L 544.570312 611.203125 Z M 671.851562 483.925781 " clip-rule="nonzero"/></clipPath><clipPath id="3867d0ad70"><path d="M 510 482 L 616 482 L 616 534 L 510 534 Z M 510 482 " clip-rule="nonzero"/></clipPath><clipPath id="43714a6333"><path d="M 544.71875 611.054688 L 440.246094 506.578125 L 567.523438 379.300781 L 672 483.773438 Z M 544.71875 611.054688 " clip-rule="nonzero"/></clipPath><clipPath id="b32e65dfe9"><path d="M 671.851562 483.925781 L 567.375 379.449219 L 440.09375 506.730469 L 544.570312 611.203125 Z M 671.851562 483.925781 " clip-rule="nonzero"/></clipPath><clipPath id="239a5c9cb5"><path d="M 567 402 L 594 402 L 594 466 L 567 466 Z M 567 402 " clip-rule="nonzero"/></clipPath><clipPath id="4d355230a5"><path d="M 544.71875 611.054688 L 440.246094 506.578125 L 567.523438 379.300781 L 672 483.773438 Z M 544.71875 611.054688 " clip-rule="nonzero"/></clipPath><clipPath id="4e683cf8dd"><path d="M 671.851562 483.925781 L 567.375 379.449219 L 440.09375 506.730469 L 544.570312 611.203125 Z M 671.851562 483.925781 " clip-rule="nonzero"/></clipPath><clipPath id="1b819b7639"><path d="M 556 526 L 594 526 L 594 566 L 556 566 Z M 556 526 " clip-rule="nonzero"/></clipPath><clipPath id="3bd7c6e5ac"><path d="M 544.71875 611.054688 L 440.246094 506.578125 L 567.523438 379.300781 L 672 483.773438 Z M 544.71875 611.054688 " clip-rule="nonzero"/></clipPath><clipPath id="d5de40102b"><path d="M 671.851562 483.925781 L 567.375 379.449219 L 440.09375 506.730469 L 544.570312 611.203125 Z M 671.851562 483.925781 " clip-rule="nonzero"/></clipPath><clipPath id="fedd15de4f"><path d="M 498 518 L 561 518 L 561 543 L 498 543 Z M 498 518 " clip-rule="nonzero"/></clipPath><clipPath id="16cd0ef3ef"><path d="M 544.71875 611.054688 L 440.246094 506.578125 L 567.523438 379.300781 L 672 483.773438 Z M 544.71875 611.054688 " clip-rule="nonzero"/></clipPath><clipPath id="87292f0598"><path d="M 671.851562 483.925781 L 567.375 379.449219 L 440.09375 506.730469 L 544.570312 611.203125 Z M 671.851562 483.925781 " clip-rule="nonzero"/></clipPath><clipPath id="73ae5f924c"><path d="M 363 381 L 458 381 L 458 586 L 363 586 Z M 363 381 " clip-rule="nonzero"/></clipPath><clipPath id="a0f0d669a7"><path d="M 327.625 392.351562 L 431.488281 365.609375 L 482.164062 562.441406 L 378.300781 589.179688 Z M 327.625 392.351562 " clip-rule="nonzero"/></clipPath><clipPath id="a2fa8aaae5"><path d="M 327.625 392.351562 L 431.488281 365.609375 L 482.164062 562.441406 L 378.300781 589.179688 Z M 327.625 392.351562 " clip-rule="nonzero"/></clipPath></defs><g clip-path="url(#0675b10bb1)"><path fill="#e7a86d" d="M 408.351562 22.5 C 455.996094 22.5 570.496094 32.777344 570.496094 32.777344 L 570.496094 82.140625 L 545.820312 82.140625 L 539.652344 133.554688 L 549.925781 283.695312 L 564.328125 322.769531 C 564.328125 322.769531 613.691406 370.074219 628.089844 399.902344 C 642.488281 429.734375 644.550781 468.4375 644.550781 468.4375 L 623.984375 553.140625 L 564.34375 674.484375 L 503.039062 767.0625 L 303.144531 767.046875 L 257.902344 709.464844 L 227.058594 633.363281 C 227.058594 633.363281 190.046875 555.214844 177.691406 514.082031 C 165.355469 472.945312 177.691406 411.242188 177.691406 411.242188 L 229.105469 336.246094 L 257.902344 279.621094 L 257.902344 82.140625 L 229.074219 82.140625 L 229.074219 32.777344 C 229.074219 32.777344 360.695312 22.5 408.351562 22.5 Z M 408.351562 22.5 " fill-opacity="1" fill-rule="nonzero"/></g><g clip-path="url(#71a8a0f907)"><path fill="#004aad" d="M 408.5 728.992188 C 419.386719 724.191406 432.820312 711.605469 448.757812 713.203125 C 459.082031 714.238281 469.746094 724.84375 478.175781 730.324219 C 488.101562 736.777344 495.828125 741.332031 503.390625 747.671875 C 506.78125 750.507812 512.796875 755.992188 511.132812 761.234375 C 509.859375 765.253906 497.894531 766.742188 491.667969 767.460938 C 469.03125 770.082031 442.957031 770.648438 420.222656 772.578125 C 387.496094 775.347656 355.355469 777.191406 325.550781 777.246094 C 320.046875 777.253906 304.371094 780.820312 303.652344 774.132812 C 303.246094 770.386719 309.429688 765.644531 312.277344 763.238281 C 335.53125 743.597656 359.808594 715.03125 393.898438 708.753906 C 406.511719 706.433594 408.464844 717.519531 408.5 728.992188 Z M 408.5 728.992188 " fill-opacity="1" fill-rule="evenodd"/></g><g clip-path="url(#7a7ef3589a)"><g clip-path="url(#dcebaab77d)"><g clip-path="url(#c20a43a9c5)"><path fill="#ffffff" d="M 292.226562 594.441406 C 267.578125 554.816406 256.679688 509.414062 243.835938 453.484375 C 243.789062 453.292969 243.710938 453.117188 243.597656 452.960938 C 243.484375 452.800781 243.347656 452.671875 243.183594 452.566406 C 243.015625 452.464844 242.839844 452.398438 242.648438 452.363281 C 242.453125 452.332031 242.265625 452.339844 242.074219 452.382812 C 241.882812 452.425781 241.710938 452.503906 241.550781 452.617188 C 241.394531 452.730469 241.261719 452.867188 241.160156 453.03125 C 241.054688 453.199219 240.988281 453.375 240.957031 453.566406 C 240.921875 453.761719 240.929688 453.949219 240.972656 454.140625 C 253.859375 510.308594 264.851562 556 289.722656 595.992188 " fill-opacity="1" fill-rule="nonzero"/></g></g></g><g clip-path="url(#d193309c67)"><g clip-path="url(#2be253b3ae)"><g clip-path="url(#0d8ca1b260)"><path fill="#ffffff" d="M 205.0625 448.089844 C 200.148438 449.074219 194.730469 452.238281 194.628906 457.25 C 194.503906 461.980469 199.167969 465.292969 203.269531 467.679688 C 208.015625 470.453125 212.894531 473.265625 218.304688 474.222656 C 231.203125 476.511719 254.039062 475.679688 242.726562 460.789062 C 235.160156 450.769531 216.804688 445.746094 205.0625 448.089844 Z M 205.0625 448.089844 " fill-opacity="1" fill-rule="nonzero"/></g></g></g><g clip-path="url(#f5309e0b3e)"><g clip-path="url(#4c807c0451)"><g clip-path="url(#1a00f33404)"><path fill="#ffffff" d="M 261.03125 428.710938 C 262.859375 424.941406 264.808594 421.117188 267.851562 418.238281 C 270.894531 415.359375 275.292969 413.566406 279.328125 414.613281 C 284.773438 416.046875 287.835938 422.25 287.558594 427.871094 C 287.277344 433.492188 284.464844 438.640625 281.644531 443.496094 C 278.957031 448.128906 276.144531 452.769531 272.371094 456.582031 C 265.878906 463.136719 254.140625 469.90625 245.015625 469.191406 C 246.5625 455.859375 255.117188 440.871094 261.03125 428.710938 Z M 261.03125 428.710938 " fill-opacity="1" fill-rule="nonzero"/></g></g></g><g clip-path="url(#e4231a21db)"><g clip-path="url(#7f2aaa7acc)"><g clip-path="url(#7ae492618f)"><path fill="#ffffff" d="M 199.375 488.367188 C 200.027344 497.011719 210.777344 500.8125 219.457031 500.621094 C 227.652344 500.4375 259.734375 494.332031 248.089844 484.316406 C 239.605469 477.015625 208.636719 485.40625 199.375 488.367188 Z M 199.375 488.367188 " fill-opacity="1" fill-rule="nonzero"/></g></g></g><g clip-path="url(#82fa1d7139)"><g clip-path="url(#146b33a06d)"><g clip-path="url(#986b767c62)"><path fill="#ffffff" d="M 288 450.796875 C 291.78125 448.839844 296.535156 447.171875 300.089844 449.515625 C 303.410156 451.703125 303.945312 456.605469 302.363281 460.253906 C 300.78125 463.902344 297.617188 466.585938 294.5625 469.132812 C 290.90625 472.296875 287.089844 475.253906 283.109375 478 C 274.242188 483.871094 260.964844 490.5625 250.503906 490.039062 C 247.246094 474.910156 276.699219 456.632812 288 450.796875 Z M 288 450.796875 " fill-opacity="1" fill-rule="nonzero"/></g></g></g><g clip-path="url(#643cfa9817)"><g clip-path="url(#aabb373f55)"><g clip-path="url(#67a5389122)"><path fill="#ffffff" d="M 277.839844 486.84375 C 284.113281 482.128906 292.082031 478.214844 299.683594 481.3125 C 302.179688 482.324219 304.570312 484.21875 305.617188 486.871094 C 307.414062 491.414062 304.730469 496.25 301.4375 499.21875 C 297.242188 503.007812 291.984375 505.234375 286.839844 507.433594 C 262.839844 517.609375 237.105469 504.082031 211.550781 508.980469 C 208.445312 509.582031 205.035156 510.589844 203.625 513.574219 C 202.421875 516.128906 203.074219 519.335938 203.75 522.257812 C 204.792969 526.75 206.269531 531.871094 210.164062 533.945312 C 212.335938 535.113281 214.800781 535.039062 217.113281 534.792969 C 231.753906 533.230469 249.953125 524.589844 257.753906 510.929688 C 263.773438 500.429688 268.015625 494.214844 277.839844 486.84375 Z M 277.839844 486.84375 " fill-opacity="1" fill-rule="nonzero"/></g></g></g><g clip-path="url(#fed7b32174)"><g clip-path="url(#b2fa1cfa64)"><g clip-path="url(#0b13d427ef)"><path fill="#ffffff" d="M 246.050781 442.058594 C 245.09375 437.246094 243.914062 432.445312 243.066406 427.636719 C 241.773438 420.289062 240.070312 412.464844 234.652344 407.234375 C 230.222656 402.949219 223.398438 402.117188 220.394531 406.808594 C 217.394531 411.5 219.203125 418.707031 221.453125 424.714844 C 223.632812 430.699219 226.363281 436.421875 229.644531 441.882812 C 231.933594 445.597656 235.007812 449.121094 237.570312 452.792969 C 240.292969 456.695312 241.695312 461.613281 244.582031 465.28125 C 244.878906 465.664062 247.097656 459.339844 247.207031 458.660156 C 247.65625 456.003906 247.726562 453.335938 247.417969 450.660156 C 247.097656 447.835938 246.605469 444.957031 246.050781 442.058594 Z M 246.050781 442.058594 " fill-opacity="1" fill-rule="nonzero"/></g></g></g><g clip-path="url(#e3740cb0ae)"><g clip-path="url(#0635a117c6)"><g clip-path="url(#b91308beb8)"><path fill="#ffffff" d="M 242.90625 562.996094 C 238.65625 565.585938 232.652344 567.335938 229.398438 564.757812 C 226.328125 562.304688 227.667969 557.632812 229.1875 553.769531 C 230.953125 549.300781 232.769531 544.730469 236.167969 540.800781 C 244.261719 531.4375 261.648438 517.441406 262.722656 532.460938 C 263.449219 542.550781 253.066406 556.816406 242.90625 562.996094 Z M 242.90625 562.996094 " fill-opacity="1" fill-rule="nonzero"/></g></g></g><g clip-path="url(#1ca4b4ba49)"><g clip-path="url(#c821a307c1)"><g clip-path="url(#ae58c14e15)"><path fill="#ffffff" d="M 296.496094 537.871094 C 300.210938 538.726562 304.070312 539.480469 308.160156 539.097656 C 312.25 538.714844 316.605469 536.886719 318.925781 533.761719 C 322.042969 529.558594 320.382812 524.335938 316.621094 521.539062 C 312.859375 518.742188 307.523438 517.796875 302.351562 517.003906 C 297.433594 516.257812 292.425781 515.574219 287.230469 515.945312 C 278.289062 516.578125 265.34375 520.421875 259.050781 526.570312 C 268.667969 532.628906 284.449219 535.167969 296.496094 537.871094 Z M 296.496094 537.871094 " fill-opacity="1" fill-rule="nonzero"/></g></g></g><g clip-path="url(#66d53ac04c)"><path fill="#004aad" d="M 534.5625 128.359375 C 523.488281 128.359375 517.484375 123.421875 513.097656 119.8125 C 509.488281 116.835938 507.292969 115.058594 502.171875 115.058594 C 497.050781 115.058594 494.871094 116.855469 491.246094 119.8125 C 486.859375 123.421875 480.855469 128.359375 469.78125 128.359375 C 458.707031 128.359375 452.703125 123.421875 448.316406 119.8125 C 444.707031 116.835938 442.511719 115.058594 437.390625 115.058594 C 432.269531 115.058594 430.089844 116.855469 426.464844 119.8125 C 422.078125 123.421875 416.074219 128.359375 405 128.359375 C 393.925781 128.359375 387.921875 123.421875 383.535156 119.8125 C 379.925781 116.835938 377.730469 115.058594 372.609375 115.058594 C 367.488281 115.058594 365.308594 116.855469 361.683594 119.8125 C 357.296875 123.421875 351.292969 128.359375 340.21875 128.359375 C 329.144531 128.359375 323.140625 123.421875 318.753906 119.8125 C 315.144531 116.835938 312.949219 115.058594 307.828125 115.058594 C 302.707031 115.058594 300.527344 116.855469 296.902344 119.8125 C 292.515625 123.421875 286.511719 128.359375 275.4375 128.359375 C 264.363281 128.359375 258.359375 123.421875 253.972656 119.8125 C 250.347656 116.855469 248.167969 115.058594 243.046875 115.058594 L 243.046875 98.429688 C 254.121094 98.429688 260.125 103.371094 264.511719 106.976562 C 268.121094 109.953125 270.316406 111.734375 275.4375 111.734375 C 280.558594 111.734375 282.738281 109.9375 286.363281 106.976562 C 290.75 103.371094 296.753906 98.429688 307.828125 98.429688 C 318.902344 98.429688 324.90625 103.371094 329.292969 106.976562 C 332.902344 109.953125 335.097656 111.734375 340.21875 111.734375 C 345.339844 111.734375 347.519531 109.9375 351.144531 106.976562 C 355.53125 103.371094 361.535156 98.429688 372.609375 98.429688 C 383.683594 98.429688 389.6875 103.371094 394.074219 106.976562 C 397.683594 109.953125 399.878906 111.734375 405 111.734375 C 410.121094 111.734375 412.300781 109.9375 415.925781 106.976562 C 420.3125 103.371094 426.316406 98.429688 437.390625 98.429688 C 448.464844 98.429688 454.46875 103.371094 458.855469 106.976562 C 462.464844 109.953125 464.660156 111.734375 469.78125 111.734375 C 474.902344 111.734375 477.082031 109.9375 480.707031 106.976562 C 485.09375 103.371094 491.097656 98.429688 502.171875 98.429688 C 513.246094 98.429688 519.25 103.371094 523.636719 106.976562 C 527.246094 109.953125 529.441406 111.734375 534.5625 111.734375 C 539.683594 111.734375 541.863281 109.9375 545.488281 106.976562 C 549.875 103.371094 555.878906 98.429688 566.953125 98.429688 L 566.953125 115.058594 C 561.832031 115.058594 559.652344 116.855469 556.027344 119.8125 C 551.640625 123.421875 545.636719 128.359375 534.5625 128.359375 Z M 534.5625 128.359375 " fill-opacity="1" fill-rule="nonzero"/></g><g clip-path="url(#a7e8a6d1a0)"><path fill="#004aad" d="M 266.1875 174.921875 C 277.261719 174.921875 283.261719 169.980469 287.652344 166.375 C 291.261719 163.398438 293.457031 161.617188 298.578125 161.617188 C 303.699219 161.617188 305.875 163.414062 309.5 166.375 C 313.890625 169.980469 319.894531 174.921875 330.96875 174.921875 C 342.039062 174.921875 348.042969 169.980469 352.433594 166.375 C 356.042969 163.398438 358.234375 161.617188 363.359375 161.617188 C 368.480469 161.617188 370.65625 163.414062 374.28125 166.375 C 378.671875 169.980469 384.675781 174.921875 395.75 174.921875 C 406.820312 174.921875 412.824219 169.980469 417.214844 166.375 C 420.824219 163.398438 423.015625 161.617188 428.140625 161.617188 C 433.261719 161.617188 435.4375 163.414062 439.0625 166.375 C 443.453125 169.980469 449.457031 174.921875 460.527344 174.921875 C 471.601562 174.921875 477.605469 169.980469 481.996094 166.375 C 485.605469 163.398438 487.796875 161.617188 492.917969 161.617188 C 498.042969 161.617188 500.21875 163.414062 503.84375 166.375 C 508.234375 169.980469 514.238281 174.921875 525.308594 174.921875 C 536.382812 174.921875 542.386719 169.980469 546.777344 166.375 C 550.402344 163.414062 552.578125 161.617188 557.699219 161.617188 L 557.699219 144.992188 C 546.628906 144.992188 540.625 149.929688 536.234375 153.539062 C 532.625 156.515625 530.433594 158.292969 525.308594 158.292969 C 520.1875 158.292969 518.011719 156.496094 514.386719 153.539062 C 509.996094 149.929688 503.992188 144.992188 492.917969 144.992188 C 481.847656 144.992188 475.84375 149.929688 471.453125 153.539062 C 467.84375 156.515625 465.652344 158.292969 460.527344 158.292969 C 455.40625 158.292969 453.230469 156.496094 449.605469 153.539062 C 445.214844 149.929688 439.210938 144.992188 428.140625 144.992188 C 417.066406 144.992188 411.0625 149.929688 406.671875 153.539062 C 403.0625 156.515625 400.871094 158.292969 395.75 158.292969 C 390.625 158.292969 388.449219 156.496094 384.824219 153.539062 C 380.433594 149.929688 374.429688 144.992188 363.359375 144.992188 C 352.285156 144.992188 346.28125 149.929688 341.890625 153.539062 C 338.28125 156.515625 336.089844 158.292969 330.96875 158.292969 C 325.847656 158.292969 323.667969 156.496094 320.042969 153.539062 C 315.652344 149.929688 309.652344 144.992188 298.578125 144.992188 C 287.503906 144.992188 281.5 149.929688 277.109375 153.539062 C 273.503906 156.515625 271.308594 158.292969 266.1875 158.292969 C 261.066406 158.292969 258.886719 156.496094 255.261719 153.539062 C 250.871094 149.929688 244.871094 144.992188 233.796875 144.992188 L 233.796875 161.617188 C 238.917969 161.617188 241.09375 163.414062 244.71875 166.375 C 249.109375 169.980469 255.113281 174.921875 266.1875 174.921875 Z M 266.1875 174.921875 " fill-opacity="1" fill-rule="nonzero"/></g><g clip-path="url(#ecd7b2e6a4)"><g clip-path="url(#796060145a)"><g clip-path="url(#6321461f74)"><path fill="#ffffff" d="M 530.851562 596.878906 C 553.1875 555.90625 561.46875 509.953125 571.085938 453.378906 C 571.121094 453.1875 571.1875 453.007812 571.292969 452.84375 C 571.394531 452.679688 571.527344 452.539062 571.683594 452.429688 C 571.84375 452.316406 572.019531 452.238281 572.207031 452.195312 C 572.398438 452.152344 572.589844 452.144531 572.78125 452.179688 C 572.972656 452.210938 573.148438 452.28125 573.316406 452.382812 C 573.480469 452.488281 573.617188 452.617188 573.730469 452.777344 C 573.84375 452.933594 573.921875 453.109375 573.964844 453.296875 C 574.007812 453.488281 574.015625 453.679688 573.980469 453.871094 C 564.332031 510.683594 555.972656 556.933594 533.4375 598.28125 " fill-opacity="1" fill-rule="nonzero"/></g></g></g><g clip-path="url(#667859230d)"><g clip-path="url(#a0bf110167)"><g clip-path="url(#e72ddee8bd)"><path fill="#ffffff" d="M 609.484375 445.773438 C 614.445312 446.472656 620.039062 449.324219 620.429688 454.320312 C 620.820312 459.035156 616.355469 462.609375 612.398438 465.226562 C 607.816406 468.269531 603.109375 471.355469 597.761719 472.621094 C 585.015625 475.648438 562.171875 476.121094 572.613281 460.609375 C 579.589844 450.171875 597.628906 444.105469 609.484375 445.773438 Z M 609.484375 445.773438 " fill-opacity="1" fill-rule="nonzero"/></g></g></g><g clip-path="url(#9b5464ed3a)"><g clip-path="url(#df24c2fe44)"><g clip-path="url(#866cf09611)"><path fill="#ffffff" d="M 552.5 429.632812 C 550.457031 425.972656 548.292969 422.269531 545.089844 419.566406 C 541.886719 416.867188 537.390625 415.328125 533.425781 416.609375 C 528.070312 418.347656 525.367188 424.71875 525.96875 430.316406 C 526.566406 435.910156 529.671875 440.890625 532.765625 445.574219 C 535.714844 450.046875 538.789062 454.519531 542.773438 458.105469 C 549.628906 464.28125 561.738281 470.367188 570.804688 469.128906 C 568.496094 455.90625 559.097656 441.433594 552.5 429.632812 Z M 552.5 429.632812 " fill-opacity="1" fill-rule="nonzero"/></g></g></g><g clip-path="url(#d97c01606d)"><g clip-path="url(#c8395155da)"><g clip-path="url(#039cd384a2)"><path fill="#ffffff" d="M 617.472656 485.660156 C 617.316406 494.328125 606.796875 498.734375 598.125 499.042969 C 589.933594 499.328125 557.550781 495.070312 568.605469 484.40625 C 576.65625 476.632812 608.054688 483.234375 617.472656 485.660156 Z M 617.472656 485.660156 " fill-opacity="1" fill-rule="nonzero"/></g></g></g><g clip-path="url(#2ba16c7f54)"><g clip-path="url(#8d82dd1503)"><g clip-path="url(#2dd17e1686)"><path fill="#ffffff" d="M 526.839844 453.226562 C 522.949219 451.488281 518.109375 450.097656 514.695312 452.640625 C 511.507812 455.015625 511.253906 459.9375 513.042969 463.492188 C 514.832031 467.042969 518.140625 469.539062 521.339844 471.910156 C 525.167969 474.859375 529.148438 477.59375 533.277344 480.105469 C 542.46875 485.460938 556.109375 491.378906 566.523438 490.257812 C 568.910156 474.96875 538.457031 458.402344 526.839844 453.226562 Z M 526.839844 453.226562 " fill-opacity="1" fill-rule="nonzero"/></g></g></g><g clip-path="url(#3867d0ad70)"><g clip-path="url(#43714a6333)"><g clip-path="url(#b32e65dfe9)"><path fill="#ffffff" d="M 539.046875 488.632812 C 532.515625 484.285156 524.332031 480.832031 516.921875 484.363281 C 514.488281 485.515625 512.210938 487.542969 511.316406 490.253906 C 509.785156 494.890625 512.738281 499.566406 516.195312 502.339844 C 520.605469 505.882812 525.980469 507.800781 531.242188 509.703125 C 555.785156 518.488281 580.703125 503.511719 606.496094 506.9375 C 609.628906 507.355469 613.09375 508.167969 614.671875 511.070312 C 616.019531 513.550781 615.554688 516.789062 615.042969 519.746094 C 614.261719 524.289062 613.082031 529.488281 609.308594 531.78125 C 607.207031 533.070312 604.746094 533.136719 602.421875 533.027344 C 587.714844 532.304688 569.050781 524.71875 560.480469 511.527344 C 553.871094 501.390625 549.277344 495.429688 539.046875 488.632812 Z M 539.046875 488.632812 " fill-opacity="1" fill-rule="nonzero"/></g></g></g><g clip-path="url(#239a5c9cb5)"><g clip-path="url(#4d355230a5)"><g clip-path="url(#4e683cf8dd)"><path fill="#ffffff" d="M 568.21875 442.101562 C 568.898438 437.242188 569.804688 432.382812 570.375 427.53125 C 571.242188 420.121094 572.496094 412.214844 577.601562 406.683594 C 581.78125 402.148438 588.542969 400.925781 591.8125 405.4375 C 595.078125 409.949219 593.683594 417.246094 591.78125 423.375 C 589.949219 429.476562 587.550781 435.347656 584.585938 440.984375 C 582.515625 444.828125 579.648438 448.515625 577.300781 452.332031 C 574.808594 456.382812 573.6875 461.375 571.015625 465.203125 C 570.742188 465.597656 568.164062 459.410156 568.015625 458.742188 C 567.414062 456.113281 567.195312 453.453125 567.347656 450.765625 C 567.503906 447.929688 567.832031 445.023438 568.21875 442.101562 Z M 568.21875 442.101562 " fill-opacity="1" fill-rule="nonzero"/></g></g></g><g clip-path="url(#1b819b7639)"><g clip-path="url(#3bd7c6e5ac)"><g clip-path="url(#d5de40102b)"><path fill="#ffffff" d="M 578.285156 562.65625 C 582.675781 565 588.773438 566.402344 591.871094 563.644531 C 594.796875 561.019531 593.191406 556.429688 591.453125 552.664062 C 589.433594 548.300781 587.359375 543.84375 583.742188 540.113281 C 575.125 531.226562 556.964844 518.25 556.753906 533.3125 C 556.605469 543.421875 567.789062 557.070312 578.285156 562.65625 Z M 578.285156 562.65625 " fill-opacity="1" fill-rule="nonzero"/></g></g></g><g clip-path="url(#fedd15de4f)"><g clip-path="url(#16cd0ef3ef)"><g clip-path="url(#87292f0598)"><path fill="#ffffff" d="M 523.34375 540.644531 C 519.683594 541.710938 515.875 542.683594 511.769531 542.539062 C 507.664062 542.390625 503.210938 540.8125 500.71875 537.828125 C 497.363281 533.808594 498.71875 528.5 502.316406 525.492188 C 505.910156 522.484375 511.1875 521.238281 516.304688 520.148438 C 521.171875 519.121094 526.132812 518.152344 531.339844 518.226562 C 540.300781 518.347656 553.445312 521.441406 560.078125 527.21875 C 550.828125 533.816406 535.21875 537.257812 523.34375 540.644531 Z M 523.34375 540.644531 " fill-opacity="1" fill-rule="nonzero"/></g></g></g><g clip-path="url(#73ae5f924c)"><g clip-path="url(#a0f0d669a7)"><g clip-path="url(#a2fa8aaae5)"><path fill="#ffffff" d="M 446.082031 465.546875 C 452.015625 465.242188 458.398438 469.476562 457.597656 475.972656 C 454.140625 493.1875 426.28125 503.199219 410.980469 506.570312 C 408.863281 506.792969 406.578125 507.855469 404.414062 507.894531 C 403.953125 516.835938 403.148438 525.757812 402.054688 534.644531 C 406.972656 530.269531 415.660156 525.535156 418.804688 523.8125 C 445.398438 512.296875 452.4375 542.667969 416.613281 546.75 C 411.265625 547.414062 405.675781 547.296875 400.570312 545.515625 C 400.355469 546.964844 400.128906 548.40625 399.898438 549.847656 C 398.210938 560.191406 395.703125 570.382812 392.792969 580.449219 C 392.222656 582.492188 391.660156 585.832031 388.796875 585.050781 C 387.496094 584.65625 386.71875 583.234375 387.121094 581.929688 C 388.992188 575.851562 390.605469 569.695312 392.007812 563.820312 C 393.222656 558.613281 394.25 553.375 395.105469 548.097656 C 395.367188 546.417969 395.625 544.738281 395.867188 543.058594 C 386.597656 542.894531 372.730469 536.066406 367.230469 529.769531 C 362.425781 524.914062 364.777344 516.316406 371.527344 514.863281 C 375.871094 513.941406 380.289062 515.792969 384.027344 517.871094 C 389.558594 521.15625 394.269531 525.867188 397.382812 531.511719 C 398.402344 522.78125 399.132812 514.011719 399.523438 505.226562 C 390.765625 503.542969 382.585938 499.1875 374.761719 495.050781 C 350.714844 482.007812 368.988281 458.359375 388.628906 475.625 C 392.28125 478.765625 396.699219 483.570312 399.847656 488.761719 C 399.792969 479.996094 399.371094 471.234375 398.519531 462.507812 C 388.628906 460.78125 380.386719 453.703125 372.5625 447.804688 C 356.144531 434.894531 365.242188 409.792969 382.886719 425.316406 C 385.390625 427.769531 387.789062 430.375 390.011719 433.132812 C 385.679688 417.460938 381.550781 396.835938 392.507812 384.984375 C 409.117188 371.375 418.695312 398.585938 416.949219 411.847656 C 416.425781 419.777344 414.292969 427.472656 411.316406 434.824219 C 417.660156 426.449219 426.027344 418.105469 435.511719 419.515625 C 443.082031 421.183594 443.074219 430.636719 439.328125 435.941406 C 430.921875 448.652344 417.058594 456.675781 403.628906 463.328125 C 404.621094 474.105469 404.988281 484.933594 404.820312 495.753906 C 406.949219 492.984375 409.050781 490.5625 409.679688 489.605469 C 414.5625 483.386719 420.128906 477.707031 426.554688 473.066406 C 432.25 468.957031 438.921875 465.582031 446.082031 465.546875 Z M 446.082031 465.546875 " fill-opacity="1" fill-rule="nonzero"/></g></g></g></svg>