<svg xmlns="http://www.w3.org/2000/svg" xmlns:xlink="http://www.w3.org/1999/xlink" width="1080" zoomAndPan="magnify" viewBox="0 0 810 809.999993" height="1080" preserveAspectRatio="xMidYMid meet" version="1.0"><defs><clipPath id="b107da8c82"><path d="M 261.359375 98.429688 L 540.359375 98.429688 L 540.359375 128.429688 L 261.359375 128.429688 Z M 261.359375 98.429688 " clip-rule="nonzero"/></clipPath></defs><g clip-path="url(#b107da8c82)"><path fill="#004aad" d="M 534.5625 128.359375 C 523.488281 128.359375 517.484375 123.421875 513.097656 119.8125 C 509.488281 116.835938 507.292969 115.058594 502.171875 115.058594 C 497.050781 115.058594 494.871094 116.855469 491.246094 119.8125 C 486.859375 123.421875 480.855469 128.359375 469.78125 128.359375 C 458.707031 128.359375 452.703125 123.421875 448.316406 119.8125 C 444.707031 116.835938 442.511719 115.058594 437.390625 115.058594 C 432.269531 115.058594 430.089844 116.855469 426.464844 119.8125 C 422.078125 123.421875 416.074219 128.359375 405 128.359375 C 393.925781 128.359375 387.921875 123.421875 383.535156 119.8125 C 379.925781 116.835938 377.730469 115.058594 372.609375 115.058594 C 367.488281 115.058594 365.308594 116.855469 361.683594 119.8125 C 357.296875 123.421875 351.292969 128.359375 340.21875 128.359375 C 329.144531 128.359375 323.140625 123.421875 318.753906 119.8125 C 315.144531 116.835938 312.949219 115.058594 307.828125 115.058594 C 302.707031 115.058594 300.527344 116.855469 296.902344 119.8125 C 292.515625 123.421875 286.511719 128.359375 275.4375 128.359375 C 264.363281 128.359375 258.359375 123.421875 253.972656 119.8125 C 250.347656 116.855469 248.167969 115.058594 243.046875 115.058594 L 243.046875 98.429688 C 254.121094 98.429688 260.125 103.371094 264.511719 106.976562 C 268.121094 109.953125 270.316406 111.734375 275.4375 111.734375 C 280.558594 111.734375 282.738281 109.9375 286.363281 106.976562 C 290.75 103.371094 296.753906 98.429688 307.828125 98.429688 C 318.902344 98.429688 324.90625 103.371094 329.292969 106.976562 C 332.902344 109.953125 335.097656 111.734375 340.21875 111.734375 C 345.339844 111.734375 347.519531 109.9375 351.144531 106.976562 C 355.53125 103.371094 361.535156 98.429688 372.609375 98.429688 C 383.683594 98.429688 389.6875 103.371094 394.074219 106.976562 C 397.683594 109.953125 399.878906 111.734375 405 111.734375 C 410.121094 111.734375 412.300781 109.9375 415.925781 106.976562 C 420.3125 103.371094 426.316406 98.429688 437.390625 98.429688 C 448.464844 98.429688 454.46875 103.371094 458.855469 106.976562 C 462.464844 109.953125 464.660156 111.734375 469.78125 111.734375 C 474.902344 111.734375 477.082031 109.9375 480.707031 106.976562 C 485.09375 103.371094 491.097656 98.429688 502.171875 98.429688 C 513.246094 98.429688 519.25 103.371094 523.636719 106.976562 C 527.246094 109.953125 529.441406 111.734375 534.5625 111.734375 C 539.683594 111.734375 541.863281 109.9375 545.488281 106.976562 C 549.875 103.371094 555.878906 98.429688 566.953125 98.429688 L 566.953125 115.058594 C 561.832031 115.058594 559.652344 116.855469 556.027344 119.8125 C 551.640625 123.421875 545.636719 128.359375 534.5625 128.359375 Z M 534.5625 128.359375 " fill-opacity="1" fill-rule="nonzero"/></g></svg>