<svg xmlns="http://www.w3.org/2000/svg" xmlns:xlink="http://www.w3.org/1999/xlink" width="1080" zoomAndPan="magnify" viewBox="0 0 810 809.999993" height="1080" preserveAspectRatio="xMidYMid meet" version="1.0"><defs><clipPath id="2bb63bc035"><path d="M 303.25 708 L 506.5 708 L 506.5 764.164062 L 303.25 764.164062 Z M 303.25 708 " clip-rule="nonzero"/></clipPath></defs><g clip-path="url(#2bb63bc035)"><path fill="#004aad" d="M 408.5 728.992188 C 419.386719 724.191406 432.820312 711.605469 448.757812 713.203125 C 459.082031 714.238281 469.746094 724.84375 478.175781 730.324219 C 488.101562 736.777344 495.828125 741.332031 503.390625 747.671875 C 506.78125 750.507812 512.796875 755.992188 511.132812 761.234375 C 509.859375 765.253906 497.894531 766.742188 491.667969 767.460938 C 469.03125 770.082031 442.957031 770.648438 420.222656 772.578125 C 387.496094 775.347656 355.355469 777.191406 325.550781 777.246094 C 320.046875 777.253906 304.371094 780.820312 303.652344 774.132812 C 303.246094 770.386719 309.429688 765.644531 312.277344 763.238281 C 335.53125 743.597656 359.808594 715.03125 393.898438 708.753906 C 406.511719 706.433594 408.464844 717.519531 408.5 728.992188 Z M 408.5 728.992188 " fill-opacity="1" fill-rule="evenodd"/></g></svg>