<svg xmlns="http://www.w3.org/2000/svg" xmlns:xlink="http://www.w3.org/1999/xlink" width="1080" zoomAndPan="magnify" viewBox="0 0 810 809.999993" height="1080" preserveAspectRatio="xMidYMid meet" version="1.0"><defs><clipPath id="f9cfdea740"><path d="M 172 22.5 L 645 22.5 L 645 767.25 L 172 767.25 Z M 172 22.5 " clip-rule="nonzero"/></clipPath></defs><g clip-path="url(#f9cfdea740)"><path fill="#e7a86d" d="M 408.351562 22.5 C 455.996094 22.5 570.496094 32.777344 570.496094 32.777344 L 570.496094 82.140625 L 545.820312 82.140625 L 539.652344 133.554688 L 549.925781 283.695312 L 564.328125 322.769531 C 564.328125 322.769531 613.691406 370.074219 628.089844 399.902344 C 642.488281 429.734375 644.550781 468.4375 644.550781 468.4375 L 623.984375 553.140625 L 564.34375 674.484375 L 503.039062 767.0625 L 303.144531 767.046875 L 257.902344 709.464844 L 227.058594 633.363281 C 227.058594 633.363281 190.046875 555.214844 177.691406 514.082031 C 165.355469 472.945312 177.691406 411.242188 177.691406 411.242188 L 229.105469 336.246094 L 257.902344 279.621094 L 257.902344 82.140625 L 229.074219 82.140625 L 229.074219 32.777344 C 229.074219 32.777344 360.695312 22.5 408.351562 22.5 Z M 408.351562 22.5 " fill-opacity="1" fill-rule="nonzero"/></g></svg>