<svg xmlns="http://www.w3.org/2000/svg" xmlns:xlink="http://www.w3.org/1999/xlink" width="1080" zoomAndPan="magnify" viewBox="0 0 810 809.999993" height="1080" preserveAspectRatio="xMidYMid meet" version="1.0"><defs><clipPath id="a2ba305816"><path d="M 240 452 L 293 452 L 293 596 L 240 596 Z M 240 452 " clip-rule="nonzero"/></clipPath><clipPath id="d6904648e8"><path d="M 144.984375 489.75 L 243.304688 379.460938 L 377.664062 499.242188 L 279.347656 609.53125 Z M 144.984375 489.75 " clip-rule="nonzero"/></clipPath><clipPath id="f746d933c9"><path d="M 144.984375 489.75 L 243.304688 379.460938 L 377.664062 499.242188 L 279.347656 609.53125 Z M 144.984375 489.75 " clip-rule="nonzero"/></clipPath><clipPath id="ff7972ed6e"><path d="M 194 447 L 246 447 L 246 476 L 194 476 Z M 194 447 " clip-rule="nonzero"/></clipPath><clipPath id="0f25eb8730"><path d="M 144.984375 489.75 L 243.304688 379.460938 L 377.664062 499.242188 L 279.347656 609.53125 Z M 144.984375 489.75 " clip-rule="nonzero"/></clipPath><clipPath id="f262bc60ca"><path d="M 144.984375 489.75 L 243.304688 379.460938 L 377.664062 499.242188 L 279.347656 609.53125 Z M 144.984375 489.75 " clip-rule="nonzero"/></clipPath><clipPath id="dedba68bdb"><path d="M 245 414 L 288 414 L 288 470 L 245 470 Z M 245 414 " clip-rule="nonzero"/></clipPath><clipPath id="daa308a4ca"><path d="M 144.984375 489.75 L 243.304688 379.460938 L 377.664062 499.242188 L 279.347656 609.53125 Z M 144.984375 489.75 " clip-rule="nonzero"/></clipPath><clipPath id="abcd486148"><path d="M 144.984375 489.75 L 243.304688 379.460938 L 377.664062 499.242188 L 279.347656 609.53125 Z M 144.984375 489.75 " clip-rule="nonzero"/></clipPath><clipPath id="4ada99e5f2"><path d="M 199 481 L 251 481 L 251 501 L 199 501 Z M 199 481 " clip-rule="nonzero"/></clipPath><clipPath id="c570b8bcd9"><path d="M 144.984375 489.75 L 243.304688 379.460938 L 377.664062 499.242188 L 279.347656 609.53125 Z M 144.984375 489.75 " clip-rule="nonzero"/></clipPath><clipPath id="50c2aebae2"><path d="M 144.984375 489.75 L 243.304688 379.460938 L 377.664062 499.242188 L 279.347656 609.53125 Z M 144.984375 489.75 " clip-rule="nonzero"/></clipPath><clipPath id="117a699768"><path d="M 250 448 L 304 448 L 304 491 L 250 491 Z M 250 448 " clip-rule="nonzero"/></clipPath><clipPath id="d2dd16d793"><path d="M 144.984375 489.75 L 243.304688 379.460938 L 377.664062 499.242188 L 279.347656 609.53125 Z M 144.984375 489.75 " clip-rule="nonzero"/></clipPath><clipPath id="a31b24cc90"><path d="M 144.984375 489.75 L 243.304688 379.460938 L 377.664062 499.242188 L 279.347656 609.53125 Z M 144.984375 489.75 " clip-rule="nonzero"/></clipPath><clipPath id="3ee720ca6c"><path d="M 202 480 L 307 480 L 307 535 L 202 535 Z M 202 480 " clip-rule="nonzero"/></clipPath><clipPath id="c49b968534"><path d="M 144.984375 489.75 L 243.304688 379.460938 L 377.664062 499.242188 L 279.347656 609.53125 Z M 144.984375 489.75 " clip-rule="nonzero"/></clipPath><clipPath id="e5b9ea66e6"><path d="M 144.984375 489.75 L 243.304688 379.460938 L 377.664062 499.242188 L 279.347656 609.53125 Z M 144.984375 489.75 " clip-rule="nonzero"/></clipPath><clipPath id="2b46444218"><path d="M 218 403 L 248 403 L 248 466 L 218 466 Z M 218 403 " clip-rule="nonzero"/></clipPath><clipPath id="1c6bb26fd4"><path d="M 144.984375 489.75 L 243.304688 379.460938 L 377.664062 499.242188 L 279.347656 609.53125 Z M 144.984375 489.75 " clip-rule="nonzero"/></clipPath><clipPath id="f21219b85b"><path d="M 144.984375 489.75 L 243.304688 379.460938 L 377.664062 499.242188 L 279.347656 609.53125 Z M 144.984375 489.75 " clip-rule="nonzero"/></clipPath><clipPath id="3a35725d4a"><path d="M 227 525 L 263 525 L 263 567 L 227 567 Z M 227 525 " clip-rule="nonzero"/></clipPath><clipPath id="94d0c6c29a"><path d="M 144.984375 489.75 L 243.304688 379.460938 L 377.664062 499.242188 L 279.347656 609.53125 Z M 144.984375 489.75 " clip-rule="nonzero"/></clipPath><clipPath id="5a09407ec1"><path d="M 144.984375 489.75 L 243.304688 379.460938 L 377.664062 499.242188 L 279.347656 609.53125 Z M 144.984375 489.75 " clip-rule="nonzero"/></clipPath><clipPath id="0d76e4b6b3"><path d="M 259 515 L 321 515 L 321 540 L 259 540 Z M 259 515 " clip-rule="nonzero"/></clipPath><clipPath id="dc23bc8a59"><path d="M 144.984375 489.75 L 243.304688 379.460938 L 377.664062 499.242188 L 279.347656 609.53125 Z M 144.984375 489.75 " clip-rule="nonzero"/></clipPath><clipPath id="175eeb6259"><path d="M 144.984375 489.75 L 243.304688 379.460938 L 377.664062 499.242188 L 279.347656 609.53125 Z M 144.984375 489.75 " clip-rule="nonzero"/></clipPath></defs><g clip-path="url(#a2ba305816)"><g clip-path="url(#d6904648e8)"><g clip-path="url(#f746d933c9)"><path fill="#ba7b1d" d="M 292.226562 594.441406 C 267.578125 554.816406 256.679688 509.414062 243.835938 453.484375 C 243.789062 453.292969 243.710938 453.117188 243.597656 452.960938 C 243.484375 452.800781 243.347656 452.671875 243.183594 452.566406 C 243.015625 452.464844 242.839844 452.398438 242.648438 452.363281 C 242.453125 452.332031 242.265625 452.339844 242.074219 452.382812 C 241.882812 452.425781 241.710938 452.503906 241.550781 452.617188 C 241.394531 452.730469 241.261719 452.867188 241.160156 453.03125 C 241.054688 453.199219 240.988281 453.375 240.957031 453.566406 C 240.921875 453.761719 240.929688 453.949219 240.972656 454.140625 C 253.859375 510.308594 264.851562 556 289.722656 595.992188 " fill-opacity="1" fill-rule="nonzero"/></g></g></g><g clip-path="url(#ff7972ed6e)"><g clip-path="url(#0f25eb8730)"><g clip-path="url(#f262bc60ca)"><path fill="#ba7b1d" d="M 205.0625 448.089844 C 200.148438 449.074219 194.730469 452.238281 194.628906 457.25 C 194.503906 461.980469 199.167969 465.292969 203.269531 467.679688 C 208.015625 470.453125 212.894531 473.265625 218.304688 474.222656 C 231.203125 476.511719 254.039062 475.679688 242.726562 460.789062 C 235.160156 450.769531 216.804688 445.746094 205.0625 448.089844 Z M 205.0625 448.089844 " fill-opacity="1" fill-rule="nonzero"/></g></g></g><g clip-path="url(#dedba68bdb)"><g clip-path="url(#daa308a4ca)"><g clip-path="url(#abcd486148)"><path fill="#ba7b1d" d="M 261.03125 428.710938 C 262.859375 424.941406 264.808594 421.117188 267.851562 418.238281 C 270.894531 415.359375 275.292969 413.566406 279.328125 414.613281 C 284.773438 416.046875 287.835938 422.25 287.558594 427.871094 C 287.277344 433.492188 284.464844 438.640625 281.644531 443.496094 C 278.957031 448.128906 276.144531 452.769531 272.371094 456.582031 C 265.878906 463.136719 254.140625 469.90625 245.015625 469.191406 C 246.5625 455.859375 255.117188 440.871094 261.03125 428.710938 Z M 261.03125 428.710938 " fill-opacity="1" fill-rule="nonzero"/></g></g></g><g clip-path="url(#4ada99e5f2)"><g clip-path="url(#c570b8bcd9)"><g clip-path="url(#50c2aebae2)"><path fill="#ba7b1d" d="M 199.375 488.367188 C 200.027344 497.011719 210.777344 500.8125 219.457031 500.621094 C 227.652344 500.4375 259.734375 494.332031 248.089844 484.316406 C 239.605469 477.015625 208.636719 485.40625 199.375 488.367188 Z M 199.375 488.367188 " fill-opacity="1" fill-rule="nonzero"/></g></g></g><g clip-path="url(#117a699768)"><g clip-path="url(#d2dd16d793)"><g clip-path="url(#a31b24cc90)"><path fill="#ba7b1d" d="M 288 450.796875 C 291.78125 448.839844 296.535156 447.171875 300.089844 449.515625 C 303.410156 451.703125 303.945312 456.605469 302.363281 460.253906 C 300.78125 463.902344 297.617188 466.585938 294.5625 469.132812 C 290.90625 472.296875 287.089844 475.253906 283.109375 478 C 274.242188 483.871094 260.964844 490.5625 250.503906 490.039062 C 247.246094 474.910156 276.699219 456.628906 288 450.796875 Z M 288 450.796875 " fill-opacity="1" fill-rule="nonzero"/></g></g></g><g clip-path="url(#3ee720ca6c)"><g clip-path="url(#c49b968534)"><g clip-path="url(#e5b9ea66e6)"><path fill="#ba7b1d" d="M 277.839844 486.84375 C 284.113281 482.128906 292.082031 478.214844 299.683594 481.3125 C 302.179688 482.324219 304.570312 484.21875 305.617188 486.871094 C 307.414062 491.414062 304.730469 496.25 301.4375 499.21875 C 297.242188 503.007812 291.984375 505.234375 286.839844 507.433594 C 262.839844 517.609375 237.105469 504.082031 211.550781 508.980469 C 208.445312 509.582031 205.035156 510.589844 203.625 513.574219 C 202.421875 516.128906 203.074219 519.335938 203.75 522.257812 C 204.792969 526.75 206.269531 531.871094 210.164062 533.945312 C 212.335938 535.113281 214.800781 535.039062 217.113281 534.792969 C 231.753906 533.230469 249.953125 524.589844 257.753906 510.929688 C 263.773438 500.429688 268.015625 494.214844 277.839844 486.84375 Z M 277.839844 486.84375 " fill-opacity="1" fill-rule="nonzero"/></g></g></g><g clip-path="url(#2b46444218)"><g clip-path="url(#1c6bb26fd4)"><g clip-path="url(#f21219b85b)"><path fill="#ba7b1d" d="M 246.050781 442.058594 C 245.09375 437.246094 243.914062 432.445312 243.066406 427.636719 C 241.773438 420.289062 240.070312 412.464844 234.652344 407.234375 C 230.222656 402.949219 223.398438 402.117188 220.394531 406.808594 C 217.394531 411.5 219.203125 418.707031 221.453125 424.714844 C 223.632812 430.699219 226.363281 436.421875 229.644531 441.882812 C 231.933594 445.597656 235.007812 449.121094 237.570312 452.792969 C 240.292969 456.695312 241.695312 461.613281 244.582031 465.28125 C 244.878906 465.664062 247.097656 459.339844 247.207031 458.660156 C 247.65625 456.003906 247.726562 453.335938 247.417969 450.660156 C 247.097656 447.835938 246.605469 444.957031 246.050781 442.058594 Z M 246.050781 442.058594 " fill-opacity="1" fill-rule="nonzero"/></g></g></g><g clip-path="url(#3a35725d4a)"><g clip-path="url(#94d0c6c29a)"><g clip-path="url(#5a09407ec1)"><path fill="#ba7b1d" d="M 242.90625 562.996094 C 238.65625 565.585938 232.652344 567.335938 229.398438 564.757812 C 226.328125 562.304688 227.667969 557.632812 229.1875 553.769531 C 230.953125 549.300781 232.769531 544.730469 236.167969 540.800781 C 244.261719 531.4375 261.648438 517.441406 262.722656 532.460938 C 263.449219 542.550781 253.066406 556.816406 242.90625 562.996094 Z M 242.90625 562.996094 " fill-opacity="1" fill-rule="nonzero"/></g></g></g><g clip-path="url(#0d76e4b6b3)"><g clip-path="url(#dc23bc8a59)"><g clip-path="url(#175eeb6259)"><path fill="#ba7b1d" d="M 296.496094 537.871094 C 300.210938 538.726562 304.070312 539.480469 308.160156 539.097656 C 312.25 538.714844 316.605469 536.886719 318.925781 533.761719 C 322.042969 529.558594 320.382812 524.335938 316.621094 521.539062 C 312.859375 518.742188 307.523438 517.796875 302.351562 517.003906 C 297.433594 516.257812 292.425781 515.574219 287.230469 515.945312 C 278.289062 516.578125 265.34375 520.421875 259.050781 526.570312 C 268.667969 532.628906 284.449219 535.167969 296.496094 537.871094 Z M 296.496094 537.871094 " fill-opacity="1" fill-rule="nonzero"/></g></g></g></svg>