<svg xmlns="http://www.w3.org/2000/svg" xmlns:xlink="http://www.w3.org/1999/xlink" width="1080" zoomAndPan="magnify" viewBox="0 0 810 809.999993" height="1080" preserveAspectRatio="xMidYMid meet" version="1.0"><defs><clipPath id="0f6d96d2aa"><path d="M 363 381 L 458 381 L 458 586 L 363 586 Z M 363 381 " clip-rule="nonzero"/></clipPath><clipPath id="3bf357f076"><path d="M 327.625 392.351562 L 431.488281 365.609375 L 482.164062 562.441406 L 378.300781 589.179688 Z M 327.625 392.351562 " clip-rule="nonzero"/></clipPath><clipPath id="b6bb8f0c75"><path d="M 327.625 392.351562 L 431.488281 365.609375 L 482.164062 562.441406 L 378.300781 589.179688 Z M 327.625 392.351562 " clip-rule="nonzero"/></clipPath></defs><g clip-path="url(#0f6d96d2aa)"><g clip-path="url(#3bf357f076)"><g clip-path="url(#b6bb8f0c75)"><path fill="#ba7b1d" d="M 446.082031 465.546875 C 452.015625 465.242188 458.398438 469.476562 457.597656 475.972656 C 454.140625 493.183594 426.28125 503.199219 410.980469 506.570312 C 408.863281 506.792969 406.578125 507.855469 404.414062 507.894531 C 403.953125 516.835938 403.148438 525.757812 402.054688 534.644531 C 406.972656 530.269531 415.660156 525.535156 418.804688 523.8125 C 445.398438 512.296875 452.4375 542.667969 416.613281 546.75 C 411.265625 547.414062 405.675781 547.296875 400.570312 545.515625 C 400.355469 546.964844 400.128906 548.40625 399.898438 549.847656 C 398.210938 560.191406 395.703125 570.382812 392.792969 580.449219 C 392.222656 582.492188 391.660156 585.832031 388.796875 585.050781 C 387.496094 584.65625 386.71875 583.234375 387.121094 581.929688 C 388.992188 575.851562 390.605469 569.695312 392.007812 563.820312 C 393.222656 558.613281 394.25 553.375 395.105469 548.097656 C 395.367188 546.417969 395.625 544.738281 395.867188 543.058594 C 386.597656 542.894531 372.730469 536.066406 367.230469 529.769531 C 362.425781 524.914062 364.777344 516.316406 371.527344 514.863281 C 375.871094 513.941406 380.289062 515.792969 384.027344 517.871094 C 389.558594 521.15625 394.269531 525.863281 397.382812 531.511719 C 398.402344 522.78125 399.132812 514.011719 399.523438 505.226562 C 390.765625 503.539062 382.585938 499.1875 374.761719 495.050781 C 350.714844 482.007812 368.988281 458.359375 388.628906 475.625 C 392.28125 478.765625 396.699219 483.570312 399.847656 488.761719 C 399.792969 479.996094 399.371094 471.234375 398.519531 462.507812 C 388.628906 460.78125 380.386719 453.703125 372.5625 447.804688 C 356.144531 434.894531 365.242188 409.792969 382.886719 425.316406 C 385.390625 427.765625 387.789062 430.375 390.011719 433.132812 C 385.679688 417.460938 381.550781 396.835938 392.507812 384.984375 C 409.117188 371.375 418.695312 398.585938 416.949219 411.847656 C 416.425781 419.773438 414.292969 427.472656 411.316406 434.824219 C 417.660156 426.449219 426.027344 418.105469 435.511719 419.515625 C 443.082031 421.183594 443.074219 430.636719 439.328125 435.941406 C 430.921875 448.652344 417.058594 456.675781 403.628906 463.328125 C 404.621094 474.105469 404.988281 484.933594 404.820312 495.753906 C 406.949219 492.984375 409.050781 490.5625 409.679688 489.605469 C 414.5625 483.386719 420.128906 477.707031 426.554688 473.066406 C 432.25 468.957031 438.921875 465.582031 446.082031 465.546875 Z M 446.082031 465.546875 " fill-opacity="1" fill-rule="nonzero"/></g></g></g></svg>