<svg xmlns="http://www.w3.org/2000/svg" xmlns:xlink="http://www.w3.org/1999/xlink" width="1080" zoomAndPan="magnify" viewBox="0 0 810 809.999993" height="1080" preserveAspectRatio="xMidYMid meet" version="1.0"><defs><clipPath id="631058ab21"><path d="M 260.75 144.992188 L 539.75 144.992188 L 539.75 174.992188 L 260.75 174.992188 Z M 260.75 144.992188 " clip-rule="nonzero"/></clipPath></defs><g clip-path="url(#631058ab21)"><path fill="#8b322c" d="M 266.1875 174.921875 C 277.261719 174.921875 283.261719 169.980469 287.652344 166.375 C 291.261719 163.398438 293.457031 161.617188 298.578125 161.617188 C 303.699219 161.617188 305.875 163.414062 309.5 166.375 C 313.890625 169.980469 319.894531 174.921875 330.96875 174.921875 C 342.039062 174.921875 348.042969 169.980469 352.433594 166.375 C 356.042969 163.398438 358.234375 161.617188 363.359375 161.617188 C 368.480469 161.617188 370.65625 163.414062 374.28125 166.375 C 378.671875 169.980469 384.675781 174.921875 395.75 174.921875 C 406.820312 174.921875 412.824219 169.980469 417.214844 166.375 C 420.824219 163.398438 423.015625 161.617188 428.140625 161.617188 C 433.261719 161.617188 435.4375 163.414062 439.0625 166.375 C 443.453125 169.980469 449.457031 174.921875 460.527344 174.921875 C 471.601562 174.921875 477.605469 169.980469 481.996094 166.375 C 485.605469 163.398438 487.796875 161.617188 492.917969 161.617188 C 498.042969 161.617188 500.21875 163.414062 503.84375 166.375 C 508.234375 169.980469 514.238281 174.921875 525.308594 174.921875 C 536.382812 174.921875 542.386719 169.980469 546.777344 166.375 C 550.402344 163.414062 552.578125 161.617188 557.699219 161.617188 L 557.699219 144.992188 C 546.628906 144.992188 540.625 149.929688 536.234375 153.539062 C 532.625 156.515625 530.433594 158.292969 525.308594 158.292969 C 520.1875 158.292969 518.011719 156.496094 514.386719 153.539062 C 509.996094 149.929688 503.992188 144.992188 492.917969 144.992188 C 481.847656 144.992188 475.84375 149.929688 471.453125 153.539062 C 467.84375 156.515625 465.652344 158.292969 460.527344 158.292969 C 455.40625 158.292969 453.230469 156.496094 449.605469 153.539062 C 445.214844 149.929688 439.210938 144.992188 428.140625 144.992188 C 417.066406 144.992188 411.0625 149.929688 406.671875 153.539062 C 403.0625 156.515625 400.871094 158.292969 395.75 158.292969 C 390.625 158.292969 388.449219 156.496094 384.824219 153.539062 C 380.433594 149.929688 374.429688 144.992188 363.359375 144.992188 C 352.285156 144.992188 346.28125 149.929688 341.890625 153.539062 C 338.28125 156.515625 336.089844 158.292969 330.96875 158.292969 C 325.847656 158.292969 323.667969 156.496094 320.042969 153.539062 C 315.652344 149.929688 309.652344 144.992188 298.578125 144.992188 C 287.503906 144.992188 281.5 149.929688 277.109375 153.539062 C 273.503906 156.515625 271.308594 158.292969 266.1875 158.292969 C 261.066406 158.292969 258.886719 156.496094 255.261719 153.539062 C 250.871094 149.929688 244.871094 144.992188 233.796875 144.992188 L 233.796875 161.617188 C 238.917969 161.617188 241.09375 163.414062 244.71875 166.375 C 249.109375 169.980469 255.113281 174.921875 266.1875 174.921875 Z M 266.1875 174.921875 " fill-opacity="1" fill-rule="nonzero"/></g></svg>