<svg xmlns="http://www.w3.org/2000/svg" xmlns:xlink="http://www.w3.org/1999/xlink" width="1080" zoomAndPan="magnify" viewBox="0 0 810 809.999993" height="1080" preserveAspectRatio="xMidYMid meet" version="1.0"><defs><clipPath id="0643e4d9e4"><path d="M 530 452 L 575 452 L 575 599 L 530 599 Z M 530 452 " clip-rule="nonzero"/></clipPath><clipPath id="63e939b48d"><path d="M 544.71875 611.054688 L 440.246094 506.578125 L 567.523438 379.300781 L 672 483.773438 Z M 544.71875 611.054688 " clip-rule="nonzero"/></clipPath><clipPath id="1ab5c09037"><path d="M 671.851562 483.925781 L 567.375 379.449219 L 440.09375 506.730469 L 544.570312 611.203125 Z M 671.851562 483.925781 " clip-rule="nonzero"/></clipPath><clipPath id="92b35002d2"><path d="M 569 445 L 621 445 L 621 475 L 569 475 Z M 569 445 " clip-rule="nonzero"/></clipPath><clipPath id="03bef0a153"><path d="M 544.71875 611.054688 L 440.246094 506.578125 L 567.523438 379.300781 L 672 483.773438 Z M 544.71875 611.054688 " clip-rule="nonzero"/></clipPath><clipPath id="be1c9eafdf"><path d="M 671.851562 483.925781 L 567.375 379.449219 L 440.09375 506.730469 L 544.570312 611.203125 Z M 671.851562 483.925781 " clip-rule="nonzero"/></clipPath><clipPath id="4ad15aa489"><path d="M 525 416 L 571 416 L 571 470 L 525 470 Z M 525 416 " clip-rule="nonzero"/></clipPath><clipPath id="fbbfe9fa35"><path d="M 544.71875 611.054688 L 440.246094 506.578125 L 567.523438 379.300781 L 672 483.773438 Z M 544.71875 611.054688 " clip-rule="nonzero"/></clipPath><clipPath id="8a7464e242"><path d="M 671.851562 483.925781 L 567.375 379.449219 L 440.09375 506.730469 L 544.570312 611.203125 Z M 671.851562 483.925781 " clip-rule="nonzero"/></clipPath><clipPath id="7fada8ef6c"><path d="M 566 480 L 618 480 L 618 500 L 566 500 Z M 566 480 " clip-rule="nonzero"/></clipPath><clipPath id="86b07ae024"><path d="M 544.71875 611.054688 L 440.246094 506.578125 L 567.523438 379.300781 L 672 483.773438 Z M 544.71875 611.054688 " clip-rule="nonzero"/></clipPath><clipPath id="6449bf879a"><path d="M 671.851562 483.925781 L 567.375 379.449219 L 440.09375 506.730469 L 544.570312 611.203125 Z M 671.851562 483.925781 " clip-rule="nonzero"/></clipPath><clipPath id="910ac51105"><path d="M 511 451 L 567 451 L 567 491 L 511 491 Z M 511 451 " clip-rule="nonzero"/></clipPath><clipPath id="f0d1c7aade"><path d="M 544.71875 611.054688 L 440.246094 506.578125 L 567.523438 379.300781 L 672 483.773438 Z M 544.71875 611.054688 " clip-rule="nonzero"/></clipPath><clipPath id="8e95ded2fb"><path d="M 671.851562 483.925781 L 567.375 379.449219 L 440.09375 506.730469 L 544.570312 611.203125 Z M 671.851562 483.925781 " clip-rule="nonzero"/></clipPath><clipPath id="8bcf3510ad"><path d="M 510 482 L 616 482 L 616 534 L 510 534 Z M 510 482 " clip-rule="nonzero"/></clipPath><clipPath id="3f7cea52ea"><path d="M 544.71875 611.054688 L 440.246094 506.578125 L 567.523438 379.300781 L 672 483.773438 Z M 544.71875 611.054688 " clip-rule="nonzero"/></clipPath><clipPath id="71313d0379"><path d="M 671.851562 483.925781 L 567.375 379.449219 L 440.09375 506.730469 L 544.570312 611.203125 Z M 671.851562 483.925781 " clip-rule="nonzero"/></clipPath><clipPath id="773183533c"><path d="M 567 402 L 594 402 L 594 466 L 567 466 Z M 567 402 " clip-rule="nonzero"/></clipPath><clipPath id="546e56eb7f"><path d="M 544.71875 611.054688 L 440.246094 506.578125 L 567.523438 379.300781 L 672 483.773438 Z M 544.71875 611.054688 " clip-rule="nonzero"/></clipPath><clipPath id="1b7191ef16"><path d="M 671.851562 483.925781 L 567.375 379.449219 L 440.09375 506.730469 L 544.570312 611.203125 Z M 671.851562 483.925781 " clip-rule="nonzero"/></clipPath><clipPath id="dfda693149"><path d="M 556 526 L 594 526 L 594 566 L 556 566 Z M 556 526 " clip-rule="nonzero"/></clipPath><clipPath id="bd19f2b48c"><path d="M 544.71875 611.054688 L 440.246094 506.578125 L 567.523438 379.300781 L 672 483.773438 Z M 544.71875 611.054688 " clip-rule="nonzero"/></clipPath><clipPath id="e45a35dea2"><path d="M 671.851562 483.925781 L 567.375 379.449219 L 440.09375 506.730469 L 544.570312 611.203125 Z M 671.851562 483.925781 " clip-rule="nonzero"/></clipPath><clipPath id="4aebc217cc"><path d="M 498 518 L 561 518 L 561 543 L 498 543 Z M 498 518 " clip-rule="nonzero"/></clipPath><clipPath id="93619dc4ef"><path d="M 544.71875 611.054688 L 440.246094 506.578125 L 567.523438 379.300781 L 672 483.773438 Z M 544.71875 611.054688 " clip-rule="nonzero"/></clipPath><clipPath id="ff04372320"><path d="M 671.851562 483.925781 L 567.375 379.449219 L 440.09375 506.730469 L 544.570312 611.203125 Z M 671.851562 483.925781 " clip-rule="nonzero"/></clipPath></defs><g clip-path="url(#0643e4d9e4)"><g clip-path="url(#63e939b48d)"><g clip-path="url(#1ab5c09037)"><path fill="#ba7b1d" d="M 530.851562 596.878906 C 553.1875 555.90625 561.46875 509.953125 571.085938 453.378906 C 571.121094 453.1875 571.1875 453.007812 571.292969 452.84375 C 571.394531 452.679688 571.527344 452.539062 571.683594 452.429688 C 571.84375 452.316406 572.019531 452.238281 572.207031 452.195312 C 572.398438 452.152344 572.589844 452.144531 572.78125 452.179688 C 572.972656 452.210938 573.148438 452.28125 573.316406 452.382812 C 573.480469 452.488281 573.617188 452.617188 573.730469 452.777344 C 573.84375 452.933594 573.921875 453.109375 573.964844 453.296875 C 574.007812 453.488281 574.015625 453.679688 573.980469 453.871094 C 564.332031 510.683594 555.972656 556.933594 533.4375 598.28125 " fill-opacity="1" fill-rule="nonzero"/></g></g></g><g clip-path="url(#92b35002d2)"><g clip-path="url(#03bef0a153)"><g clip-path="url(#be1c9eafdf)"><path fill="#ba7b1d" d="M 609.484375 445.773438 C 614.445312 446.472656 620.039062 449.324219 620.429688 454.320312 C 620.820312 459.035156 616.355469 462.609375 612.398438 465.226562 C 607.816406 468.269531 603.109375 471.355469 597.761719 472.621094 C 585.015625 475.648438 562.171875 476.121094 572.613281 460.609375 C 579.589844 450.171875 597.628906 444.105469 609.484375 445.773438 Z M 609.484375 445.773438 " fill-opacity="1" fill-rule="nonzero"/></g></g></g><g clip-path="url(#4ad15aa489)"><g clip-path="url(#fbbfe9fa35)"><g clip-path="url(#8a7464e242)"><path fill="#ba7b1d" d="M 552.5 429.632812 C 550.457031 425.972656 548.292969 422.269531 545.089844 419.566406 C 541.886719 416.867188 537.390625 415.328125 533.425781 416.609375 C 528.070312 418.347656 525.367188 424.71875 525.96875 430.316406 C 526.566406 435.910156 529.671875 440.890625 532.765625 445.574219 C 535.714844 450.046875 538.789062 454.519531 542.773438 458.105469 C 549.628906 464.28125 561.738281 470.367188 570.804688 469.128906 C 568.496094 455.90625 559.097656 441.433594 552.5 429.632812 Z M 552.5 429.632812 " fill-opacity="1" fill-rule="nonzero"/></g></g></g><g clip-path="url(#7fada8ef6c)"><g clip-path="url(#86b07ae024)"><g clip-path="url(#6449bf879a)"><path fill="#ba7b1d" d="M 617.472656 485.660156 C 617.316406 494.328125 606.796875 498.734375 598.125 499.042969 C 589.933594 499.328125 557.550781 495.070312 568.605469 484.40625 C 576.65625 476.632812 608.054688 483.234375 617.472656 485.660156 Z M 617.472656 485.660156 " fill-opacity="1" fill-rule="nonzero"/></g></g></g><g clip-path="url(#910ac51105)"><g clip-path="url(#f0d1c7aade)"><g clip-path="url(#8e95ded2fb)"><path fill="#ba7b1d" d="M 526.839844 453.226562 C 522.949219 451.488281 518.109375 450.097656 514.695312 452.640625 C 511.507812 455.015625 511.253906 459.9375 513.042969 463.492188 C 514.832031 467.042969 518.140625 469.539062 521.339844 471.910156 C 525.167969 474.859375 529.148438 477.59375 533.277344 480.105469 C 542.46875 485.460938 556.109375 491.378906 566.523438 490.257812 C 568.910156 474.96875 538.457031 458.402344 526.839844 453.226562 Z M 526.839844 453.226562 " fill-opacity="1" fill-rule="nonzero"/></g></g></g><g clip-path="url(#8bcf3510ad)"><g clip-path="url(#3f7cea52ea)"><g clip-path="url(#71313d0379)"><path fill="#ba7b1d" d="M 539.046875 488.632812 C 532.515625 484.285156 524.332031 480.832031 516.921875 484.363281 C 514.488281 485.515625 512.210938 487.542969 511.316406 490.253906 C 509.785156 494.890625 512.738281 499.566406 516.195312 502.339844 C 520.605469 505.882812 525.980469 507.800781 531.242188 509.703125 C 555.785156 518.488281 580.703125 503.511719 606.496094 506.9375 C 609.628906 507.355469 613.09375 508.167969 614.671875 511.070312 C 616.019531 513.550781 615.554688 516.789062 615.042969 519.746094 C 614.261719 524.289062 613.082031 529.488281 609.308594 531.78125 C 607.207031 533.070312 604.746094 533.136719 602.421875 533.027344 C 587.714844 532.304688 569.050781 524.71875 560.480469 511.527344 C 553.871094 501.390625 549.277344 495.429688 539.046875 488.632812 Z M 539.046875 488.632812 " fill-opacity="1" fill-rule="nonzero"/></g></g></g><g clip-path="url(#773183533c)"><g clip-path="url(#546e56eb7f)"><g clip-path="url(#1b7191ef16)"><path fill="#ba7b1d" d="M 568.21875 442.101562 C 568.898438 437.242188 569.804688 432.382812 570.375 427.53125 C 571.242188 420.121094 572.496094 412.214844 577.601562 406.683594 C 581.78125 402.148438 588.542969 400.925781 591.8125 405.4375 C 595.078125 409.949219 593.683594 417.246094 591.78125 423.375 C 589.949219 429.476562 587.550781 435.347656 584.585938 440.984375 C 582.515625 444.828125 579.648438 448.515625 577.300781 452.332031 C 574.808594 456.382812 573.6875 461.375 571.015625 465.203125 C 570.742188 465.597656 568.164062 459.410156 568.015625 458.742188 C 567.414062 456.113281 567.195312 453.453125 567.347656 450.765625 C 567.503906 447.929688 567.832031 445.023438 568.21875 442.101562 Z M 568.21875 442.101562 " fill-opacity="1" fill-rule="nonzero"/></g></g></g><g clip-path="url(#dfda693149)"><g clip-path="url(#bd19f2b48c)"><g clip-path="url(#e45a35dea2)"><path fill="#ba7b1d" d="M 578.285156 562.65625 C 582.675781 565 588.773438 566.402344 591.871094 563.644531 C 594.796875 561.019531 593.191406 556.429688 591.453125 552.664062 C 589.433594 548.300781 587.359375 543.84375 583.742188 540.113281 C 575.125 531.226562 556.964844 518.25 556.753906 533.3125 C 556.605469 543.421875 567.789062 557.070312 578.285156 562.65625 Z M 578.285156 562.65625 " fill-opacity="1" fill-rule="nonzero"/></g></g></g><g clip-path="url(#4aebc217cc)"><g clip-path="url(#93619dc4ef)"><g clip-path="url(#ff04372320)"><path fill="#ba7b1d" d="M 523.34375 540.644531 C 519.683594 541.710938 515.875 542.683594 511.769531 542.539062 C 507.664062 542.390625 503.210938 540.8125 500.71875 537.828125 C 497.363281 533.808594 498.71875 528.5 502.316406 525.492188 C 505.910156 522.484375 511.1875 521.238281 516.304688 520.148438 C 521.171875 519.121094 526.132812 518.152344 531.339844 518.226562 C 540.300781 518.347656 553.445312 521.441406 560.078125 527.21875 C 550.828125 533.816406 535.21875 537.257812 523.34375 540.644531 Z M 523.34375 540.644531 " fill-opacity="1" fill-rule="nonzero"/></g></g></g></svg>