<svg xmlns="http://www.w3.org/2000/svg" xmlns:xlink="http://www.w3.org/1999/xlink" width="1080" zoomAndPan="magnify" viewBox="0 0 810 809.999993" height="1080" preserveAspectRatio="xMidYMid meet" version="1.0"><defs><clipPath id="6d73a873e9"><path d="M 94.066406 243 L 276.316406 243 L 276.316406 567 L 94.066406 567 Z M 94.066406 243 " clip-rule="nonzero"/></clipPath></defs><g clip-path="url(#6d73a873e9)"><path fill="#8b322c" d="M 256.066406 243 C 166.59375 243 94.066406 315.527344 94.066406 405 C 94.066406 494.472656 166.59375 567 256.066406 567 C 345.539062 567 418.066406 494.472656 418.066406 405 C 418.066406 315.527344 345.539062 243 256.066406 243 Z M 256.066406 534.601562 C 184.496094 534.601562 126.46875 476.570312 126.46875 405 C 126.46875 333.429688 184.496094 275.398438 256.066406 275.398438 C 327.640625 275.398438 385.667969 333.429688 385.667969 405 C 385.667969 476.570312 327.640625 534.601562 256.066406 534.601562 Z M 256.066406 534.601562 " fill-opacity="1" fill-rule="nonzero"/></g></svg>