<svg xmlns="http://www.w3.org/2000/svg" xmlns:xlink="http://www.w3.org/1999/xlink" width="1080" zoomAndPan="magnify" viewBox="0 0 810 809.999993" height="1080" preserveAspectRatio="xMidYMid meet" version="1.0"><defs><clipPath id="000f228106"><path d="M 533.375 243 L 715.625 243 L 715.625 567 L 533.375 567 Z M 533.375 243 " clip-rule="nonzero"/></clipPath></defs><g clip-path="url(#000f228106)"><path fill="#004aad" d="M 553.625 243 C 643.097656 243 715.625 315.527344 715.625 405 C 715.625 494.472656 643.097656 567 553.625 567 C 464.152344 567 391.625 494.472656 391.625 405 C 391.625 315.527344 464.152344 243 553.625 243 Z M 553.625 534.601562 C 625.195312 534.601562 683.226562 476.570312 683.226562 405 C 683.226562 333.429688 625.195312 275.398438 553.625 275.398438 C 482.054688 275.398438 424.023438 333.429688 424.023438 405 C 424.023438 476.570312 482.054688 534.601562 553.625 534.601562 Z M 553.625 534.601562 " fill-opacity="1" fill-rule="nonzero"/></g></svg>